# xmcd
#
# Track frame offsets:
#	150
#	34882
#	62043
#	90266
#	127506
#	154782
#	187574
#
# Disc length: 3041 seconds
#
# Revision: 0
# Processed by: cddbd v1.5.2PL0 Copyright (c) Steve Scherf et al.
# Submitted via: audiograbber 1.83.01
#
DISCID=420bdf07
DTITLE=Taake - ... Doedskvad 
DYEAR=2005
DGENRE=Black Metal
TTITLE0=Hordalands Doedskvad - Part I
TTITLE1=Hordalands Doedskvad - Part II
TTITLE2=Hordalands Doedskvad - Part III
TTITLE3=Hordalands Doedskvad - Part IV
TTITLE4=Hordalands Doedskvad - Part V
TTITLE5=Hordalands Doedskvad - Part VI
TTITLE6=Hordalands Doedskvad - Part VII
EXTD=
EXTT0=
EXTT1=
EXTT2=
EXTT3=
EXTT4=
EXTT5=
EXTT6=
PLAYORDER=
